<?xml version="1.0" encoding="UTF-8"?>
<svg version="1.1" viewBox="0 0 2048 635" width="432" height="134" xmlns="http://www.w3.org/2000/svg">
<path transform="translate(281,75)" d="m0 0h2l1 77-5 1h-10l-2-2-2-8-3-5-9 2-28 12-21 13-17 14-13 12-12 14-11 17-8 16-7 18-5 19-2 20v25l2 17 4 17 6 18 8 16 10 16 9 12 9 10 8 8 19 14 15 9 19 7 16 4 10 1 22 1h1l-1-2h2v-9l1-4-19-1-14-3-16-5-19-9-12-8-11-9-13-13-10-13-11-21-7-21-4-22-1-9v-15l3-19 6-21 9-19 8-12 11-13 8-8 18-13 15-8 19-7 12-2-1-2v-11l2-1 14-1h13l21 2 25 6 18 8 14 8 16 12 15 14 6 5 13-11 5-4 4 1 10 15 12 22 8 20 6 20 3 16 1 11v29l-4 28-5 19-3 5-11-3-17-6-1-4 5-17 3-16 1-13v-11l-2-21-5-23-11 1-1 1 5 24v29l-4 19-7 21-9 17-10 14-11 12-13 11-10 7-18 11h10l14-7 13-9 3-3h2l-1 4-8 7-16 8-7 4h-2l-1 4 16-7 14-10 10-9 15-20 7-6 5-1 1 3 16 8 17 8 19 7 5 3 6 1 1 2-6 11-11 13-5 6 1 5 5 11 4 15 1 14-4 2h-16l-26-3-9-2-5-5-7-13-10-14-2-5-8 4-15 9-21 9-19 6-17 3h-37l-23-4-27-8-18-8-22-14-14-11-10-9-7-8-8-9-14-21-9-16-9-21-6-20-3-15-1-8v-42l4-24 4-15 7-20 9-19 11-18 13-17 12-13 15-15 11-9 16-12 21-13 28-15 17-11z" fill="#D0D2D3"/>
<path transform="translate(774,191)" d="m0 0 62 1v217l-1 1h-41l-1-1-1-11 1-123 1-35-7 19-14 42-16 50-18 55-3 4h-41l-4-9-17-55-15-49-11-36-6-19-1-2 1 28 1 140-3 2h-38l-1-4v-201l1-13h63l8 24 12 39 13 42 15 48 4 11v2h2l2-11 32-96 16-50 4-9z" fill="#E8F7FD"/>
<path transform="translate(281,75)" d="m0 0h2l1 77-5 1h-10l-2-2-2-8-3-5-9 2-28 12-21 13-17 14-13 12-12 14-11 17-8 16-7 18-5 19-2 20v25l2 17 4 17 6 18 8 16 10 16 9 12 9 10 8 8 19 14 15 9 19 7 16 4 10 1 22 1 3 1h12l20-5 17-6 26-13 16-12 10-11 8-12 9-8 5-1 1 3 16 8 17 8 19 7 5 3 6 1 1 2-6 11-11 13-5 6 1 5 5 11 4 15 1 14-4 2h-16l-26-3-9-2-5-5-7-13-10-14-2-5-8 4-15 9-21 9-19 6-17 3h-37l-23-4-27-8-18-8-22-14-14-11-10-9-7-8-8-9-14-21-9-16-9-21-6-20-3-15-1-8v-42l4-24 4-15 7-20 9-19 11-18 13-17 12-13 15-15 11-9 16-12 21-13 28-15 17-11z" fill="#1B446B"/>
<path transform="translate(1489,191)" d="m0 0h16l44 1 19 3 16 6 11 7 9 9 8 16 3 12v22l-4 13-7 12-9 10-13 9-7 3 7 11 34 51 17 25 5 7v2h-50l-7-9-12-20-12-19-16-26-6-9-25-1v83l-2 1h-43l-1-1v-217zm21 38v59l1 1 28-1 13-3 9-6 6-10 2-11-1-9-4-8-8-7-12-4-7-1z" fill="#E8F7FD"/>
<path transform="translate(942,190)" d="m0 0h56l3 6 8 24 19 53 17 49 13 36 15 43 2 5v4h-49l-4-11-11-37-1-4-80 1-13 42-4 9h-48l-1-2 9-24 18-52 17-48 15-43 14-40 4-10zm26 36-6 24-18 60-2 9h57l-12-40-15-49-2-4z" fill="#E8F7FD"/>
<path transform="translate(274,239)" d="m0 0h24l18 5 15 8 13 12 8 10 8 14 4 11 2 16v11l-2 13-5 14-9 15-11 12-7 6-14 8-14 5-11 2h-11l-17-3-16-6-16-10-10-10-9-14-5-11-4-18v-17l2-13 6-16 7-11 11-12 10-9 15-8z" fill="#1D3450"/>
<path transform="translate(1292,192)" d="m0 0h126v24l-1 13h-79v48h74v37l-1 1h-73v57h79l1 2v34l-4 2h-122z" fill="#E8F7FD"/>
<path transform="translate(1065,191)" d="m0 0 46 1 4 10 13 42 16 50 12 40 7 29v3h2l1-9 8-32 16-51 23-72 3-10 5-1 43 1-12 35-15 43-12 36-21 62-14 40-2 2h-49l-4-8-19-57-15-43-28-84-8-23z" fill="#E8F7FD"/>
<path transform="translate(1716,188)" d="m0 0h27l22 4 21 7 8 4-1 6-11 27-1 3-9-3-24-7-13-2h-13l-9 3-7 5-4 8v11l3 6 5 5 10 7 34 17 16 10 12 11 7 9 5 11 2 9v20l-3 12-8 15-7 8-13 9-12 5-18 4-9 1h-25l-24-4-21-7-3-2v-42l6 1 20 8 17 5 13 2h18l9-2 9-6 4-7 1-10-3-9-9-8-24-13-25-13-11-8-10-10-8-13-4-14-1-13 2-14 4-11 6-10 8-9 11-7 12-5z" fill="#E8F7FD"/>
<path transform="translate(273,237)" d="m0 0h23l24 7 11 6 9 5 11 9v2l4 2 5 4v2l4 2 9 10 10 13 9 7 8 2 9-9 5-1 3-3 3 12v29l-4 19-7 21-9 17-10 14-11 12-13 11-10 7-18 11h10l14-7 13-9 3-3h2l-1 4-8 7-16 8-7 4h-2l-2 4-4 4-16 6-19 5-6 1-12-2-1-2h2v-9l1-4-7-1 6-7 3-5 4-5 1-5-6-2-12-5-13-8-6-4v-2l-4-2-13-12-8-6v-2l-4-2-8-10-7-11-4-10-5-13-2-9v-26l2-9 1 4-1 9v17l4 18 8 16 8 11 8 8 15 9 16 6 17 3h11l14-3 13-5 12-7 10-9 7-8 9-15 5-14 2-13v-11l-2-16-6-15-9-14-11-12-8-6-16-8-15-4h-24l-17 3v-2z" fill="#BCBEBD"/>
<path transform="translate(276,169)" d="m0 0h13l21 2 25 6 18 8 14 8 16 12 15 14 6 5 13-11 5-4 4 1 10 15 12 22 8 20 6 20 3 16 1 11v29l-4 28-5 19-3 5-11-3-17-6-1-4 5-17 3-16 1-13v-11l-2-21-5-23h-11l-12-22-10-16-10-13-9-10-9-8-14-10-16-9-18-6-16-3-7-1h-34l-1-1v-11l2-1z" fill="#D0761E"/>
<path transform="translate(281,75)" d="m0 0h2l1 77-5 1h-10l-2-2-2-8-3-5-9 2-28 12-21 13-17 14-13 12-12 14-11 17-8 16-7 18-4 14h-1l-1-7-2-2-7-3-8-4-3-3h-3l2-9 6-16 8-17 11-18 13-17 12-13 15-15 11-9 16-12 21-13 28-15 17-11z" fill="#1B89BE"/>
<path transform="translate(272,183)" d="m0 0h12l19 2 14 3 17 7 7 10 1 2v6l-7 3h-16l-24-3h-17l-19 4-12 4-12 6-10 7-5 5-11 9-10 13-12 22-4 8-6 3-12 2-8 4-2-1v2h-2l2-14 6-21 9-19 8-12 11-13 8-8 18-13 15-8 19-7 9-2z" fill="#FCFCFC"/>
<path transform="translate(276,169)" d="m0 0h13l21 2 25 6 18 8 14 8 16 12 15 14 6 5 13-11 5-4 4 1 10 15 12 22 8 20 6 20 3 16v7l-2-3-5-13-4-8-7-10-4-9-3-4-5-3-4-1v2l-4-1-5-4-8-13-6-8-2-4h-3l3 21 5 15-1 3-10-18-12-17-9-11-9-9-15-11-17-10-16-6-20-4-7-1h-34l-1-1v-11l2-1z" fill="#E27F23"/>
<path transform="translate(349,316)" d="m0 0 2 1v10l-5 18-6 11-8 10-8 8-13 8-16 5h-18l-15-5-16-9-3-4h6l4 2 13 1 4-6 1-5-3-5 1-4 4-1 12-1v-18l4-7 6-5h5l8 4 7 1 4-5 4 1 7 3 9 1 5-1v-2h2l1-4z" fill="#19436A"/>
<path transform="translate(274,239)" d="m0 0h24l12 3-4 2-2 2-18 4-20 8-14 7-10 8-1 4 6-2 13 1 9 4 3 5 3 7 5 9 1 8-5 5-5 2-10-2-5-3-4 1-5 3h-4l-3-5-5-2-7-1-2-5-3 1-5 10-4 16-2 9v9l6 14 2 5-4-4-7-15-4-18v-17l2-13 6-16 7-11 11-12 10-9 15-8z" fill="#245C85"/>
<path transform="translate(286,258)" d="m0 0 14 1 11 4 12 7 11 10 5 10 2 8v7l-3 5-3 2-6 1-10-3-1 9-4 4-16-4-5 2-6 5-3 7-1 16-1 1h-12l-10-5-8-9-1-10 3-5 7-1h12l10-3 3-6-1-13-4-9 1-5 1-8-4-8v-7z" fill="#132B42"/>
<path transform="translate(306,243)" d="m0 0h7l16 8 10 8 7 7 10 14 7 16 2 8 1 11v11l-2 13-5 14-4 7h-1v-5l3-6h2l4-19v-20l-2-5-3-8-2-5-9-8-11-8-10-7-10-6-11-4-5-1h-24l-11 2 4 5 5 4 4 6 2 5-1 8 4 7 2 10v8l-5 4-8 3-12-1-5-1-3 3-4 8-4 1-4-4-9 2-2 3v13l1 7h2l4 9 4 6-1 2-3-1-1 4 4 7 8 7v5l-5-2-10-7-9-9-3-4-9-21v-9l4-16 3-11 5-9h3l2 5h7l6 3 2 5 7-3 3-2 5 1 6 3 7 1 8-4 1-6-4-10-4-6-3-8-9-4-13-1-7 2 1-5 11-9 16-8 21-8 15-3z" fill="#19436A"/>
<path transform="translate(281,75)" d="m0 0h2l1 77-5 1h-10l-2-2-2-8-3-5-9 2-28 12-21 13-17 14-4 2 2-5 10-10 5-3 10-10 2-3h2l2-5 2-4v-9l-5-3h-8l-4-2v-2l21-13 28-15 17-11z" fill="#1C7BAE"/>
<path transform="translate(273,237)" d="m0 0h23l24 7 11 6 10 8 12 12 8 13 12 25 7 12-1 20-3 16-5 15-8 14-11 12-5 5-8 6-15 7-13 3h-11l-13-3-19-9-19-10-13-8-10-9-9-12-8-15-4-13-1-5v-26l2-9 1 4-1 9v17l4 18 8 16 8 11 8 8 15 9 16 6 17 3h11l14-3 13-5 12-7 10-9 7-8 9-15 5-14 2-13v-11l-2-16-6-15-9-14-11-12-8-6-16-8-15-4h-24l-17 3v-2z" fill="#A3A9AC"/>
<path transform="translate(108,250)" d="m0 0 4 2 5 3 7 4 5 2 2 2v12l-2 20v25l2 17 1 8-4-5-5-5-7-3h-7l-7 1-2 4-1-8v-42l4-24 3-12z" fill="#206693"/>
<path transform="translate(264,221)" d="m0 0h19l9 3 16 8-1 4h-30l-16 3-17 8-11 8-13 13-12 22-5 5h-5l-5-3-1-2 1-9 5-13 10-14 11-12 8-6 16-8 17-6z" fill="#E8F6FD"/>
<path transform="translate(276,257)" d="m0 0h24l13 4 8 4 11 7 11 8 10 8 5 5 3 11 2 2 1 4v20l-4 17-2 2 1-15v-2l-7 3-7 20-4 6-10 10-10 7-2-1 13-12 9-12 5-11 4-15v-10l-3 2-1 3h-2v2l-5 2-9-1-11-5-2 4-4 2-10-3-3-2h-5-3l5-3 18 4 3-6 1-6 7 1 4 1 8-2 2-7-1-10-4-9-4-6-11-9-16-8-14-2-8 1-2 1v7l4 8-1 8-1 5 4 9 1 13-3 6-3 2-8 2h-17l-5 2 2-5 4-1 9 2h6l10-4 2-2v-8l-3-12-3-5 1-9-3-5-5-7-6-5v-2l5-2z" fill="#1D3450"/>
<path transform="translate(296,325)" d="m0 0 5 2 4 5 3 2h12l6 5 5 3 7 8-2 6-7 9-9 8-14 8-6 2h-10l-3-1-2-5 3-11v-5l-2-2 1-5 4-4v-7l-1-4v-8l4-5z" fill="#1E6593"/>
<path transform="translate(281,75)" d="m0 0h2l1 77-5 1h-10l-2-2-2-8-3-5-9 2-14 6h-4v-3h2v-2l14-9 6-4h2l3-15-1-7-4-6-4-1 2-5 12-8z" fill="#1F6694"/>
<path transform="translate(294,263)" d="m0 0h9l9 4 10 7 8 9 2 5v9l-2 3-5-1-5-4-5-1-1 4 4 13-2 7-9-2h-10l-5 3h-3l-1-21-2-6v-5l2-2 9-2-2-5-5-6 1-7z" fill="#0D2030"/>
<path transform="translate(140,183)" d="m0 0h2l-2 5-2 4-2 2-2 5-4 7 1 7 13 1 7-4 11-11 4-2v3l-10 14-10 17-8 19-6 20h-1l-1-7-2-2-7-3-8-4-3-3h-3l2-9 6-16 8-17 11-18z" fill="#1D7CAE"/>
<path transform="translate(272,183)" d="m0 0h12l19 2 14 3 17 7 7 10 1 2v6l-7 3h-16l-24-3h-17l-19 4-12 4-12 6-5 2 4-4 16-8 13-4 22-4 14-2 6-4 2-3v-5l-5-3-4-1v-2l-13-2-10-1-15-1v-1z" fill="#EBEBE9"/>
<path transform="translate(274,239)" d="m0 0h9v1l-7 1-7 8-8 6-9 8-9 7-6 5-1 2h-2l-2 4-8 7-6 9-3 5-4 2-3 5-1 4-1 16h-1v-17l2-13 6-16 7-11 11-12 10-9 15-8z" fill="#1A7BAE"/>
<path transform="translate(137,421)" d="m0 0 9 3 9 5 10 6 9 7 5 5 12 11 7 6 4 6 11 9 3 5 2 1v2l-5-1-16-8-21-14-11-9-9-8-7-8-8-9-4-6z" fill="#1F3753"/>
<path transform="translate(258,281)" d="m0 0 8 1 6 5 8 14 1 8-5 5-5 2-10-2-3-2v-3l-9-1-6-5-1-7-4-2-1-6 7-6z" fill="#1E6492"/>
<path transform="translate(392,465)" d="m0 0 4 1 1 5h2l7 8 7 7 11 8 17 8 17 6 7 2-3 2h-16l-26-3-9-2-5-5-7-13-10-14-2-5 4-1z" fill="#216794"/>
<path transform="translate(378,429)" d="m0 0h2l-1 4-8 7-16 8-7 4h-2l-2 4-4 4-16 6-19 5-6 1-12-2-1-2h2v-9l2-3 26-4 21-6 2 1-1 1h10l14-7 13-9z" fill="#CE7723"/>
<path transform="translate(296,325)" d="m0 0 5 2 4 5 3 2h12l6 5 5 3 7 8-2 6-7 9-9 8-14 8-6 2h-10l-3-1-2-5 3-11v-5l-2-2 1-5 4-4v-7l-1-4v-8l4-5zm0 3-3 2v10l1 7-3 10 4 4 1 9 4 5 7 1 12-6 4-5 2-3 1-11-3-6-5-5-3-2-8-1-7-8z" fill="#255D86"/>
<path transform="translate(114,305)" d="m0 0 9 1 4 3 2 11 2 17 1 8-4-5-5-5-7-3h-7l-7 1-2 4-1-8v-18l3-2 1 1 1-2 3-1h7z" fill="#285F87"/>
<path transform="translate(355,332)" d="m0 0h4l1 7-2 10-3 6-1 7-4 2-1 3-6 4-4 6-4 5-6 2-1 2h-3l-1 3-9 3-5-1-1-3 4-5 8-6 11-8 10-10 5-12 4-12z" fill="#132B43"/>
<path transform="translate(264,221)" d="m0 0h19l9 3 16 8-1 4h-30l-16 3-3-1 6-3h2l-2-5h-12l-15 5-14 7-11 10v-3l10-10 16-9 15-6z" fill="#EAEBE9"/>
<path transform="translate(243,234)" d="m0 0h6l-1 5-7 6h-3l-2 4-6 6h-2l-2 4-7 7-7 9-5-1-2-4 1-8 2-6 10-9 10-7z" fill="#FCFCFD"/>
<path transform="translate(277,321)" d="m0 0 5 2 1 5-3 8-1 11-2 2-8-1-9-6-4-5-2-5 1-7 2-2 16-1z" fill="#0D2030"/>
<path transform="translate(240,334)" d="m0 0 5 2 9 7 2 2 6 9 2 6-3 5-7 1-8-4-8-9-4-13 3-5z" fill="#132B42"/>
<path transform="translate(195,264)" d="m0 0 1 2-13 25-6 3-12 2-8 4-2-1v2h-2l2-12h2l2-4 12-6 5-2 11-3 6-7z" fill="#EBEBE9"/>
<path transform="translate(257,286)" d="m0 0h7l8 11 4 5 1 5-5 5-7-1-7-5v-2h-7l-4-4v-7l4-4z" fill="#1A7BAE"/>
<path transform="translate(409,403)" d="m0 0 3 1 3 4-3 1-8 10-5 5-7 8-8 7-10 8-10 6-6 1 1-4 12-8 10-8 9-10 8-12 9-8z" fill="#306489"/>
<path transform="translate(1408,372)" d="m0 0h9l1 2v34l-4 2h-89l2-2 74-1 9-3 3-4 1-4v-21l-6-2z" fill="#FDFDFD"/>
<path transform="translate(303,342)" d="m0 0h8l2 1 1 5-1 6 4 2v7l-5 4h-5l-2-2-1-7-6-3-1-5 4-7z" fill="#1A7BAE"/>
<path transform="translate(1382,277)" d="m0 0h30v37l-1 1h-57v-1l42-2 9-3 2-6 1-2v-11l-2-9-1-1-22-1z" fill="#FDFDFD"/>
<path transform="translate(206,257)" d="m0 0v3l-4 10v6l3 5v2l3 1-2 9-3 2h-5l-5-3-1-2 1-9 5-13z" fill="#EBEBE9"/>
<path transform="translate(1398,192)" d="m0 0h20v24l-1 13h-67v-1l8-1 40-1 11-2 4-4 2-8 1-18-18-1z" fill="#FDFDFD"/>
<path transform="translate(350,363)" d="m0 0h2l-2 5-11 12-7 6-14 8-14 5-11 2h-11l-17-3-14-5 4-1 12 4 6 1h27l11-3h3l1-3 9-3 1-2h3l1-3 7-3 4-5 3-5 4-3h2z" fill="#1E4E75"/>
<path transform="translate(1576,319)" d="m0 0h2l38 57 17 25 5 7v2h-29l3-2h22l-2-4-7-10-10-15-13-19-10-16-16-24z" fill="#FDFDFD"/>
<path transform="translate(287,240)" d="m0 0h15l8 2-4 2-2 2-18 4-20 8-5 1 3-3 16-10 6-3z" fill="#245D86"/>
<path transform="translate(298,191)" d="m0 0 6 1 4 3-1 7-6 5-6 2-22 3h-5l4-2 19-4 5-4 1-6v-3z" fill="#E8F7FE"/>
<path transform="translate(283,239)" d="m0 0h15v1h-11l-1 4-13 7-11 7-3 3-7 4-3-1 10-8 8-7 7-6 2-3z" fill="#1E6593"/>
<path transform="translate(344,441)" d="m0 0 1 3-6 3-11 3-17 4-22 3-1-3 12-3 26-5z" fill="#A3A9AC"/>
<path transform="translate(1755,190)" d="m0 0 17 4 21 8 1 4-12 30-1 3-9-3-7-3 2-1 13 4 3-9 4-10 1-11-5-5-16-6-12-3z" fill="#FDFDFD"/>
<path transform="translate(193,265)" d="m0 0v3l-6 7-15 4-10 6-4 2-1 2h-2l1-4h2l2-5 12-7 5-2 10-1z" fill="#E8F7FD"/>
<path transform="translate(641,319)" d="m0 0h1l1 89-3 2h-22l4-2 18-1z" fill="#FDFDFD"/>
<path transform="translate(391,312)" d="m0 0 7 1 3 3-1 7-11 1-3-3v-5z" fill="#1A3958"/>
<path transform="translate(260,136)" d="m0 0 5 1 7 7 10 6 1-14h1v16l-5 1h-10l-2-2-2-8-3-5z" fill="#A3A9AC"/>
<path transform="translate(232,280)" d="m0 0v3l-11 13-6 12-4 3-3 5-2 4v-7l3-7 7-7 6-10 8-8z" fill="#1E6593"/>
<path transform="translate(178,312)" d="m0 0 5 1 2 3-1 5-3 3h-7l-3-2v-7z" fill="#1D3B5A"/>
<path transform="translate(1716,188)" d="m0 0h11l-3 2-13 2-15 4-16 8-9 7-2 1 2-4 8-7 16-8 15-4z" fill="#FDFDFD"/>
<path transform="translate(391,310)" d="m0 0h6l5 4 1 9-5 4-9 1-6-5 1-5 3-5zm0 2-5 4v5l3 3 11-1 1-7-5-4z" fill="#A4A7A8"/>
<path transform="translate(265,137)" d="m0 0 11 1 5-1 2 2v9l-1 2-5-2-8-6z" fill="#255D86"/>
<path transform="translate(350,363)" d="m0 0h2l-2 5-11 12-7 6-14 8-4 1 1-4 9-3 1-2h3l1-3 7-3 4-5 3-5 4-3h2z" fill="#20537B"/>
<path transform="translate(249,245)" d="m0 0 3 1-11 6-13 12-8 9-3 3 2-8 16-16 6-4z" fill="#BDC0C1"/>
<path transform="translate(1509,389)" d="m0 0h1v20l-2 1h-43l-1-5h2v3h22l18-1 1-1z" fill="#FDFDFD"/>
<path transform="translate(1217,191)" d="m0 0 47 1-5 14-2 1 2-9 2-5-42 1-5 12-3 7-1-2 6-19z" fill="#FDFDFD"/>
<path transform="translate(1663,278)" d="m0 0 4 4 5 6 8 7 10 9 15 8-1 2-18-10-9-7-9-9-5-8z" fill="#FDFDFD"/>
<path transform="translate(386,408)" d="m0 0 2 1-7 8-11 10-11 7 1-3 8-6 9-11z" fill="#D4D5D6"/>
<path transform="translate(177,310)" d="m0 0 7 1 2 3v7l-4 5-6 1-5-3-2-2v-7l5-4zm1 2-7 3v7l3 2h7l4-5-1-5-3-2z" fill="#A3A9AC"/>
<path transform="translate(363,309)" d="m0 0h2l1 6v11l-2 13-5 14-4 7h-1v-5l3-6h2l4-19z" fill="#1E4B72"/>
<path transform="translate(378,429)" d="m0 0h2l-1 4-8 7-16 8-3 1v-3l15-8 10-8z" fill="#A5AAAD"/>
<path transform="translate(834,387)" d="m0 0 2 3v19l-1 1h-24l2-2h21z" fill="#FDFDFD"/>
<path transform="translate(466,449)" d="m0 0 2 1-9 10-5 7h-1l-1-8 5-5z" fill="#276A95"/>
<path transform="translate(1763,295)" d="m0 0 11 7 11 11 6 10 4 11v9h-1l-3-14-5-10-7-9-10-9-6-4z" fill="#FDFDFD"/>
<path transform="translate(273,237)" d="m0 0h23l2 2-24 1-17 3v-2z" fill="#AFB3B4"/>
<path transform="translate(1585,202)" d="m0 0 9 5 10 10 8 16 1 5-2-1-5-12-8-11-8-7-5-3z" fill="#FDFDFD"/>
<path transform="translate(1653,358)" d="m0 0 6 1 20 8 4 2-2 1-19-7-7-3v11h-1z" fill="#FDFDFD"/>
<path transform="translate(418,305)" d="m0 0 2 2v25h-2l-1-14v-10z" fill="#A5ABAD"/>
<path transform="translate(277,235)" d="m0 0m-8 1h8l-4 2-13 3h-3l-1 3-11 4-2-1 16-8z" fill="#CBCDCE"/>
<path transform="translate(399,315)" d="m0 0 2 1-1 7-11 1-2-3 4-2 2 1 3-2 3-1z" fill="#1C486E"/>
<path transform="translate(332,382)" d="m0 0 2 1-5 5-13 7h-2l1-4 9-3 1-2h3l1-3z" fill="#1E4A6F"/>
<path transform="translate(449,439)" d="m0 0 6 2v4l-2-1 1 6-5 1-1-5z" fill="#265C84"/>
<path transform="translate(869,395)" d="m0 0 2 1-1 4v7l4 2-2 1h-7l-1-2z" fill="#FDFDFD"/>
<path transform="translate(1065,191)" d="m0 0 10 1v1h-7l5 20h-2l-6-18z" fill="#FDFDFD"/>
<path transform="translate(391,310)" d="m0 0h6l5 4-1 3-5-4-7 1-4 4 1-4z" fill="#A3A9AC"/>
<path transform="translate(227,239)" d="m0 0v3l-9 6-7 7-4 2 2-4 10-9z" fill="#EAF5FA"/>
<path transform="translate(248,265)" d="m0 0 3 1-9 7-5 5-4 3 1-4h2l2-4z" fill="#21608C"/>
<path transform="translate(390,238)" d="m0 0 5 5 8 12v2l-4-2-9-15z" fill="#BBBDBC"/>
<path transform="translate(1132,391)" d="m0 0 2 1 5 13 1 3 5 1v1h-6l-4-8z" fill="#FDFDFD"/>
<path transform="translate(1580,397)" d="m0 0 5 5 4 5 6 2v1h-7l-7-9z" fill="#FDFDFD"/>
<path transform="translate(171,315)" d="m0 0h1v6l4 1 1-3 3 1-1 2 3 1-1 1h-7l-3-2z" fill="#1C4B73"/>
<path transform="translate(140,183)" d="m0 0h2l-2 5-2 4-6 4 2-5z" fill="#2681B0"/>
<path transform="translate(363,440)" d="m0 0 2 1-4 4-9 4v-3z" fill="#A6ABAE"/>
<path transform="translate(179,314)" d="m0 0 4 1-1 3-9 1 1-4 5 1z" fill="#0D2030"/>
<path transform="translate(393,313)" d="m0 0 6 2 1 4-5-1h-4l-1-4z" fill="#0D2030"/>
<path transform="translate(691,399)" d="m0 0h2l3 8 7 2v1h-8l-4-9z" fill="#FDFDFD"/>
<path transform="translate(793,398)" d="m0 0h1l2 9 6 2v1h-8l-1-1z" fill="#FDFDFD"/>
<path transform="translate(350,363)" d="m0 0h2l-2 5-9 6 2-4 4-3h2z" fill="#1E4669"/>
<path transform="translate(264,251)" d="m0 0m-1 1m-1 1m-1 1m-1 1m-1 1m-1 1m-1 1m-1 1 1 3-5 3-3-1z" fill="#1F6390"/>
<path transform="translate(381,427)" d="m0 0 1 2-2-1z" fill="#ABB0B1"/>
<path transform="translate(421,409)" d="m0 0 2 1z" fill="#A3A9AC"/>
<path transform="translate(419,408)" d="m0 0 2 1z" fill="#A3A9AC"/>
<path transform="translate(412,404)" d="m0 0 2 1z" fill="#A3A9AC"/>
<path transform="translate(382,426)" d="m0 0" fill="#A3A9AC"/>
<path transform="translate(383,425)" d="m0 0" fill="#A3A9AC"/>
<path transform="translate(384,424)" d="m0 0" fill="#BCBEBD"/>
<path transform="translate(385,423)" d="m0 0" fill="#BCBEBD"/>
<path transform="translate(386,422)" d="m0 0" fill="#BCBEBD"/>
<path transform="translate(424,410)" d="m0 0" fill="#A3A9AC"/>
<path transform="translate(418,407)" d="m0 0" fill="#A3A9AC"/>
<path transform="translate(416,406)" d="m0 0" fill="#A3A9AC"/>
<path transform="translate(414,405)" d="m0 0" fill="#A3A9AC"/>
</svg>
